<svg width="54" height="55" viewBox="0 0 54 55" fill="none" xmlns="http://www.w3.org/2000/svg">
<rect x="1" y="1" width="52" height="53" stroke="#F18D18" stroke-width="2"/>
<path d="M27.6834 33.4286H17.2886V25.9835H27.6834C29.1 25.9835 30.2486 25.7546 31.1292 25.2967C32.0098 24.8388 32.6511 24.207 33.0531 23.4011C33.4743 22.5769 33.6849 21.652 33.6849 20.6264C33.6849 19.5275 33.4743 18.511 33.0531 17.5769C32.6511 16.6429 32.0098 15.8919 31.1292 15.3242C30.2486 14.7381 29.1 14.4451 27.6834 14.4451H21.079V47H11V7H27.6834C31.0335 7 33.9146 7.58608 36.3266 8.75824C38.7578 9.9304 40.6243 11.5421 41.9261 13.5934C43.2278 15.6264 43.8787 17.9524 43.8787 20.5714C43.8787 23.1538 43.2278 25.4066 41.9261 27.3297C40.6243 29.2527 38.7578 30.7546 36.3266 31.8352C33.9146 32.8974 31.0335 33.4286 27.6834 33.4286Z" fill="#F18D18"/>
</svg>
